<svg width="456" height="456" viewBox="0 0 456 456" fill="none" xmlns="http://www.w3.org/2000/svg">
<path d="M344.461 205.475L250.525 111.539C248.947 109.952 246.957 108.838 244.78 108.323C242.603 107.807 240.324 107.911 238.203 108.622C236.082 109.334 234.201 110.624 232.775 112.348C231.348 114.072 230.432 116.16 230.13 118.377L221.372 180.042L197.378 204.036L193.419 201.756C190.836 200.5 187.888 200.213 185.111 200.946C182.334 201.679 179.912 203.384 178.285 205.751C176.659 208.119 175.935 210.991 176.247 213.846C176.558 216.702 177.884 219.35 179.982 221.311L166.186 235.348L162.227 233.068C159.65 231.885 156.738 231.653 154.006 232.412C151.274 233.172 148.9 234.875 147.304 237.218C145.708 239.562 144.994 242.395 145.288 245.215C145.582 248.035 146.865 250.66 148.91 252.624L134.873 266.54L131.034 264.021C129.665 263.228 128.152 262.713 126.583 262.507C125.014 262.301 123.42 262.407 121.893 262.82C120.365 263.232 118.934 263.943 117.682 264.911C116.43 265.879 115.382 267.085 114.598 268.46C113.243 270.93 112.801 273.799 113.35 276.563C113.898 279.327 115.402 281.81 117.598 283.576L111.479 289.694C110.368 290.821 109.509 292.17 108.96 293.653C108.345 295.096 108.019 296.645 108 298.212V336.003C108 339.185 109.264 342.236 111.514 344.486C113.764 346.736 116.815 348 119.997 348H157.548C159.115 347.981 160.664 347.655 162.107 347.04C163.59 346.491 164.939 345.632 166.066 344.521L186.461 324.006L190.42 326.285C191.782 327.084 193.288 327.605 194.852 327.82C196.416 328.035 198.007 327.939 199.534 327.538C201.061 327.136 202.494 326.438 203.75 325.482C205.006 324.526 206.062 323.331 206.856 321.966C208.256 319.497 208.735 316.61 208.208 313.821C207.681 311.031 206.181 308.518 203.976 306.73L218.013 292.814L221.972 295.093C223.765 296.109 225.789 296.646 227.85 296.653C230.147 296.446 232.335 295.581 234.153 294.163C235.971 292.745 237.342 290.833 238.101 288.656C238.86 286.479 238.976 284.129 238.435 281.887C237.894 279.646 236.718 277.608 235.049 276.018L249.085 262.101L253.044 264.381C254.837 265.397 256.862 265.934 258.923 265.94C261.373 265.897 263.75 265.104 265.736 263.668C267.722 262.233 269.221 260.224 270.031 257.911C270.841 255.599 270.924 253.094 270.267 250.733C269.611 248.372 268.248 246.269 266.361 244.706L275.838 235.228L337.623 226.47C339.843 226.155 341.931 225.223 343.649 223.781C345.366 222.339 346.645 220.444 347.341 218.312C348.163 216.125 348.329 213.744 347.818 211.464C347.306 209.183 346.14 207.102 344.461 205.475ZM152.629 324.006H131.994V303.371L138.832 296.533L164.986 312.009L152.629 324.006ZM182.502 294.013L155.988 279.017L169.665 265.34L195.698 280.337L182.502 294.013ZM213.814 262.821L187.66 247.705L201.457 234.028L227.97 249.025L213.814 262.821ZM245.126 231.509L218.973 216.033L232.649 202.356L253.284 222.991L245.126 231.509ZM274.519 210.634L245.366 181.481L250.525 145.49L310.51 205.475L274.519 210.634Z" fill="url(#paint0_linear_231_17)"/>
<defs>
<linearGradient id="paint0_linear_231_17" x1="79.927" y1="108" x2="348.42" y2="348.42" gradientUnits="userSpaceOnUse">
<stop stop-color="#7000FF"/>
<stop offset="1" stop-color="#0E52D5"/>
</linearGradient>
</defs>
</svg>
